<svg width="38" height="38" viewBox="0 0 38 38" fill="none" xmlns="http://www.w3.org/2000/svg">
<path d="M16 29C23.1797 29 29 23.1797 29 16C29 8.8203 23.1797 3 16 3C8.8203 3 3 8.8203 3 16C3 23.1797 8.8203 29 16 29Z" fill="white" stroke="#BBD6FF" stroke-width="3.2"/>
<path d="M16.4048 8.60156C14.9672 8.60156 13.8405 9.01695 13.0246 9.8675C12.2087 10.6983 11.8008 11.8257 11.8008 13.2697H13.8405C13.8405 12.3994 14.0154 11.7268 14.365 11.2521C14.7535 10.6785 15.3946 10.4016 16.2688 10.4016C16.9681 10.4016 17.5315 10.5994 17.92 10.995C18.2891 11.3906 18.4833 11.9246 18.4833 12.6169C18.4833 13.1312 18.2891 13.606 17.9394 14.0609L17.6092 14.4367C16.4048 15.5246 15.6666 16.3356 15.414 16.8895C15.1421 17.4038 15.0255 18.0367 15.0255 18.7686V19.1049H17.1041V18.7686C17.1041 18.2939 17.2012 17.8587 17.4149 17.4631C17.5897 17.1071 17.8617 16.751 18.2308 16.4345C19.1438 15.6235 19.6878 15.1093 19.8626 14.8917C20.3482 14.2587 20.6008 13.4477 20.6008 12.4785C20.6008 11.2917 20.2123 10.3422 19.4352 9.64991C18.6582 8.93783 17.648 8.60156 16.4048 8.60156ZM16.0551 20.173C15.6666 20.173 15.3169 20.2917 15.0449 20.5686C14.773 20.8257 14.637 21.162 14.637 21.5774C14.637 21.973 14.773 22.3093 15.0449 22.5862C15.3169 22.8631 15.6666 23.0016 16.0551 23.0016C16.4436 23.0016 16.7933 22.8631 17.0652 22.606C17.3372 22.329 17.4926 21.9928 17.4926 21.5774C17.4926 21.162 17.3566 20.8257 17.0847 20.5686C16.8127 20.2917 16.463 20.173 16.0551 20.173Z" fill="#5D9EFF"/>
<path d="M26 25.6016L34.8 34.4016" stroke="#BBD6FF" stroke-width="4" stroke-linecap="round" stroke-linejoin="round"/>
</svg>
